<svg xmlns="http://www.w3.org/2000/svg" width="79.9775" height="66.2305" viewBox="0 0 79.9775 66.2305"><title>briefcase</title><g id="Layer_2" data-name="Layer 2"><g id="Layer_1-2" data-name="Layer 1"><path d="M72.48,21.6577a7.3978,7.3978,0,0,1,5.2334,2.1436,6.6446,6.6446,0,0,1,2.2646,4.9526V40.5806H0V28.7539a6.6349,6.6349,0,0,1,2.2651-4.9526A7.3892,7.3892,0,0,1,7.498,21.6577H19.9946V14.5615a6.6342,6.6342,0,0,1,2.2647-4.9526,7.389,7.389,0,0,1,5.2329-2.1436H52.4854a7.3978,7.3978,0,0,1,5.2334,2.1436,6.6448,6.6448,0,0,1,2.2646,4.9526v7.0962Zm-22.4932,30.75V45.312H79.9775V66.6a6.64,6.64,0,0,1-2.2646,4.9521A7.3957,7.3957,0,0,1,72.48,73.6958H7.498a7.3871,7.3871,0,0,1-5.2329-2.1436A6.63,6.63,0,0,1,0,66.6V45.312H29.9917v7.0957a2.2369,2.2369,0,0,0,.7031,1.7,2.5061,2.5061,0,0,0,1.7964.665H47.4863a2.5119,2.5119,0,0,0,1.7969-.665A2.2366,2.2366,0,0,0,49.9863,52.4077Zm0-30.75v-4.73H29.9917v4.73Z" transform="translate(0 -7.4653)"/></g></g></svg>