<svg id="Layer_1" data-name="Layer 1" xmlns="http://www.w3.org/2000/svg" width="74.381" height="73.0204" viewBox="0 0 74.381 73.0204"><title>cog</title><path d="M86.32,59.292a1.4954,1.4954,0,0,1,.9385,2.06,36.135,36.135,0,0,1-8.6025,13.8389,1.7185,1.7185,0,0,1-2.19.4414l-6.7265-3.6807a30.44,30.44,0,0,1-9.542,5.1534v7.2138a1.6217,1.6217,0,0,1-1.4082,1.7666,41.5786,41.5786,0,0,1-17.05,0,1.6707,1.6707,0,0,1-1.564-1.7666V77.1055a30.4055,30.4055,0,0,1-9.542-5.1534l-6.57,3.6807a1.9043,1.9043,0,0,1-2.3462-.4414,36.08,36.08,0,0,1-8.6035-13.8389,1.5549,1.5549,0,0,1,.9385-2.06l6.57-3.6807a28.5261,28.5261,0,0,1,0-10.3051l-6.57-3.68a1.4949,1.4949,0,0,1-.9385-2.0611,36.1147,36.1147,0,0,1,8.6035-13.8383,1.7688,1.7688,0,0,1,2.3462-.2945l6.57,3.5332a30.4628,30.4628,0,0,1,9.542-5.1528V16.5991a1.6214,1.6214,0,0,1,1.4077-1.7666,42.3231,42.3231,0,0,1,17.2066,0,1.6211,1.6211,0,0,1,1.4082,1.7666v7.2134a30.497,30.497,0,0,1,9.542,5.1528l6.57-3.6806a1.911,1.911,0,0,1,2.3467.4419,36.17,36.17,0,0,1,8.6025,13.8383A1.4945,1.4945,0,0,1,86.32,41.626l-6.5693,3.68a28.5082,28.5082,0,0,1,0,10.3051Zm-44.9726-.5156a13.0188,13.0188,0,0,0,17.6767,0,11.2485,11.2485,0,0,0,0-16.6353,13.02,13.02,0,0,0-17.6767,0,11.2485,11.2485,0,0,0,0,16.6353Z" transform="translate(-12.9954 -13.9489)"/></svg>