<svg id="Layer_1" data-name="Layer 1" xmlns="http://www.w3.org/2000/svg" width="79.9502" height="66.4165" viewBox="0 0 79.9502 66.4165"><title>home</title><path d="M89.4521,49.6655a2.0957,2.0957,0,0,1,.5547,1.4829,1.4665,1.4665,0,0,1-.416,1.0371l-3.47,4.5958a1.5676,1.5676,0,0,1-1.25.7421,1.4472,1.4472,0,0,1-1.11-.4453L51.1426,28.3174a2.2289,2.2289,0,0,0-2.2212,0L16.3027,57.0781a1.2925,1.2925,0,0,1-.9716.4453,1.6682,1.6682,0,0,1-1.3877-.7421l-3.47-4.5958a1.4675,1.4675,0,0,1-.4165-1.0371,2.0856,2.0856,0,0,1,.5552-1.4829L45.729,18.83a6.5371,6.5371,0,0,1,4.3027-1.6309A6.0327,6.0327,0,0,1,54.1963,18.83L66.6885,29.8V18.9775a1.7731,1.7731,0,0,1,.4853-1.26,1.5559,1.5559,0,0,1,1.18-.5191H76.127a1.5617,1.5617,0,0,1,1.18.5191,1.7823,1.7823,0,0,1,.4864,1.26v20.607ZM48.9214,34.396a2.2256,2.2256,0,0,1,2.2212,0L76.6816,56.93V81.2432a2.4,2.4,0,0,1-.624,1.705,2.0951,2.0951,0,0,1-1.5967.667H58.915a1.995,1.995,0,0,1-1.5957-.7412,2.4762,2.4762,0,0,1-.625-1.6308V67.0107a2.7875,2.7875,0,0,0-.2773-1.1855,1.9105,1.9105,0,0,0-.833-.89,2.35,2.35,0,0,0-1.11-.2968H45.59a2.09,2.09,0,0,0-1.5962.667,2.3982,2.3982,0,0,0-.6245,1.705V81.2432a2.4788,2.4788,0,0,1-.625,1.6308,1.9985,1.9985,0,0,1-1.5962.7412H25.6025a2.0905,2.0905,0,0,1-1.5962-.667,2.3982,2.3982,0,0,1-.6245-1.705V56.93Z" transform="translate(-10.0566 -17.1987)"/></svg>