<svg id="Layer_1" data-name="Layer 1" xmlns="http://www.w3.org/2000/svg" width="79.9892" height="75.5346" viewBox="0 0 79.9892 75.5346"><title>pencil-alt</title><path d="M54.4121,27.4053a1.6588,1.6588,0,0,1,2.6543,0L74.3955,43.77q1.4047,1.1814,0,2.5064L33.4922,84.9,14.4453,88.1445a3.7136,3.7136,0,0,1-3.2783-1.0322,3.2713,3.2713,0,0,1-1.0928-3.0957L13.5088,66.03Zm-30.6,47.7656V68.0947h-5.62l-1.8736,9.4346,4.9957,4.7178,9.9917-1.7686V75.1709Zm5.6206-12.3838a2.0208,2.0208,0,0,0,3.1221,0L56.5977,40.084a1.7844,1.7844,0,0,0,0-2.9487,2.0239,2.0239,0,0,0-3.1221,0L29.4331,59.8389A1.781,1.781,0,0,0,29.4331,62.7871Zm58.3882-29.19L80.64,40.3789a1.6578,1.6578,0,0,1-2.6533,0l-17.33-16.3643q-1.4049-1.1784,0-2.5063l7.1816-6.7812a7.8576,7.8576,0,0,1,10.6162,0l9.3672,8.8452a6.8408,6.8408,0,0,1,0,10.0249Z" transform="translate(-10.0177 -12.6631)"/></svg>