<svg id="Layer_1" data-name="Layer 1" xmlns="http://www.w3.org/2000/svg" width="77.7886" height="73.4512" viewBox="0 0 77.7886 73.4512"><title>universal-access</title><path d="M22.4976,24.3232A38.6364,38.6364,0,0,1,50.0215,13.5869,38.6441,38.6441,0,0,1,77.5449,24.3232,34.44,34.44,0,0,1,88.916,50.3125,34.434,34.434,0,0,1,77.5449,76.3018,38.6462,38.6462,0,0,1,50.0215,87.0381,38.6385,38.6385,0,0,1,22.4976,76.3018a34.4261,34.4261,0,0,1-11.37-25.9893A34.4319,34.4319,0,0,1,22.4976,24.3232Zm50.5786,4.2207A32.3893,32.3893,0,0,0,50.0215,19.51a32.3774,32.3774,0,0,0-23.0542,9.0336A28.8633,28.8633,0,0,0,17.4,50.3125a28.8558,28.8558,0,0,0,9.5669,21.7686,32.3669,32.3669,0,0,0,23.0542,9.0332,32.3788,32.3788,0,0,0,23.0547-9.0332,28.8691,28.8691,0,0,0,9.5664-21.7686A28.8766,28.8766,0,0,0,73.0762,28.5439Zm-44.3838,1.629A29.928,29.928,0,0,1,50.0215,21.88,29.933,29.933,0,0,1,71.35,30.1729a26.67,26.67,0,0,1,8.7832,20.14,26.6628,26.6628,0,0,1-8.7832,20.14,29.9228,29.9228,0,0,1-21.3281,8.293,29.9178,29.9178,0,0,1-21.3291-8.293,26.657,26.657,0,0,1-8.7827-20.14A26.6644,26.6644,0,0,1,28.6924,30.1729ZM68.5273,42.9082a2.0826,2.0826,0,0,0,1.49-1.0366,2.3374,2.3374,0,0,0,.3125-1.8511A2.3132,2.3132,0,0,0,69.2324,38.54a2.4328,2.4328,0,0,0-1.959-.2222q-11.2939,2.52-17.2519,2.5176-5.9619,0-17.2515-2.5176a2.4344,2.4344,0,0,0-1.96.2222,2.31,2.31,0,0,0-1.0977,1.4809,2.13,2.13,0,0,0,.3135,1.7769,2.7276,2.7276,0,0,0,1.49,1.1108q8.3109,1.7769,12.86,2.3691A82.9643,82.9643,0,0,1,43.67,57.0508a46.4,46.4,0,0,1-1.1762,6.22q-.471,1.4092-2.0391,4.9609a2.8525,2.8525,0,0,0,.1567,2.0723A2.5317,2.5317,0,0,0,42.18,71.7109a2.84,2.84,0,0,0,2.1172-.0742,2.9542,2.9542,0,0,0,1.49-1.333,47.3585,47.3585,0,0,0,3.45-11.6982h1.5684a47.2285,47.2285,0,0,0,3.45,11.6982,2.9441,2.9441,0,0,0,1.49,1.333,2.8391,2.8391,0,0,0,2.1172.0742,2.5374,2.5374,0,0,0,1.5683-1.4072,2.8646,2.8646,0,0,0,.1563-2.0723q-1.57-3.5551-2.0391-4.9609a46.5932,46.5932,0,0,1-1.1758-6.22,82.9,82.9,0,0,1-.705-11.7735Q60.2148,44.6878,68.5273,42.9082ZM54.0215,29.9507a5.921,5.921,0,0,0-8,0,5.1533,5.1533,0,0,0,0,7.5522,5.921,5.921,0,0,0,8,0,5.1533,5.1533,0,0,0,0-7.5522Z" transform="translate(-11.1274 -13.5869)"/></svg>